<?xml version="1.0" encoding="utf-8"?>
<!-- Generator: Adobe Illustrator 16.0.3, SVG Export Plug-In . SVG Version: 6.00 Build 0)  -->
<!DOCTYPE svg PUBLIC "-//W3C//DTD SVG 1.1//EN" "http://www.w3.org/Graphics/SVG/1.1/DTD/svg11.dtd">
<svg version="1.1" id="Ebene_1" xmlns="http://www.w3.org/2000/svg" xmlns:xlink="http://www.w3.org/1999/xlink" x="0px" y="0px"
	 width="474.47px" height="118.08px" viewBox="0 0 474.47 118.08" enable-background="new 0 0 474.47 118.08" xml:space="preserve">
<g>
	<g>
		<path fill="#3D4F55" d="M67.408,2.352v71.982h-7.805V67.9h-0.475c-1.898,2.918-4.369,4.825-7.409,5.722
			c-3.042,0.896-8.587,1.345-16.638,1.345c-6.68,0-11.733-0.246-15.161-0.738s-6.232-1.371-8.411-2.637
			c-3.2-1.828-5.484-4.456-6.855-7.884s-2.057-8.165-2.057-14.212c0-7.277,1.002-12.691,3.006-16.242
			c2.285-4.008,5.396-6.609,9.334-7.805c3.937-1.195,11.32-1.793,22.148-1.793c6.89,0,11.83,0.458,14.818,1.371
			c2.988,0.915,5.343,2.672,7.066,5.273h0.527V2.352H67.408z M36.348,30.617c-5.906,0-10.328,0.203-13.263,0.606
			c-2.936,0.405-5.177,1.117-6.724,2.136c-1.898,1.231-3.261,3.103-4.087,5.616c-0.827,2.514-1.239,6.021-1.239,10.521
			c0,7.735,1.415,12.754,4.245,15.056c2.83,2.304,8.991,3.454,18.483,3.454c6.117,0,10.713-0.201,13.79-0.606
			c3.076-0.403,5.37-1.116,6.882-2.136c1.898-1.301,3.26-3.138,4.087-5.511c0.826-2.373,1.239-5.669,1.239-9.888
			c0-4.992-0.448-8.762-1.345-11.312c-0.896-2.548-2.435-4.42-4.614-5.616C51.025,31.426,45.207,30.653,36.348,30.617z"/>
		<path fill="#3D4F55" d="M76.848,2.352h7.91v9.387h-7.91V2.352z M76.848,24.289h7.91v50.045h-7.91V24.289z"/>
		<path fill="#3D4F55" d="M149.832,24.289h7.963V61.73c0,7.91-0.405,13.887-1.213,17.93c-0.738,3.797-2.742,6.891-6.012,9.281
			c-2.145,1.547-5.089,2.602-8.833,3.164s-9.66,0.844-17.745,0.844c-8.368,0-14.573-0.527-18.615-1.582
			c-4.043-1.055-7.049-2.918-9.018-5.59c-0.949-1.266-1.574-2.505-1.872-3.718c-0.299-1.213-0.448-2.979-0.448-5.3h8.121
			c0.175,1.863,0.527,3.296,1.055,4.298s1.424,1.854,2.689,2.558c2.777,1.617,8.525,2.426,17.244,2.426
			c7.523,0,12.99-0.326,16.4-0.976c3.41-0.651,5.801-1.837,7.172-3.56c1.089-1.406,1.828-3.068,2.215-4.983
			c0.386-1.917,0.667-5.423,0.844-10.521h-0.527c-2.18,2.707-4.764,4.465-7.752,5.273c-2.989,0.809-8.543,1.213-16.664,1.213
			c-6.75,0-11.989-0.299-15.715-0.896c-3.727-0.598-6.557-1.617-8.49-3.059c-2.742-2.004-4.746-4.658-6.012-7.963
			c-1.266-3.304-1.898-7.523-1.898-12.656c0-11.109,3.41-18.281,10.23-21.516c2.179-1.019,4.992-1.731,8.438-2.136
			c3.445-0.404,8.472-0.606,15.082-0.606c5.449,0,9.395,0.158,11.839,0.475c2.443,0.316,4.509,0.932,6.196,1.846
			c2.074,1.196,3.726,2.778,4.957,4.746h0.475L149.832,24.289z M126.471,30.617c-9.774,0-16.26,0.809-19.459,2.426
			c-3.902,2.004-5.854,7.049-5.854,15.135c0,8.192,2.197,13.342,6.592,15.451c2.637,1.266,8.525,1.898,17.666,1.898
			c9.949,0,16.277-0.861,18.984-2.584c1.968-1.266,3.366-3.093,4.192-5.484c0.826-2.39,1.239-5.783,1.239-10.178
			c0-4.183-0.475-7.383-1.424-9.598s-2.567-3.867-4.852-4.957C140.673,31.321,134.978,30.617,126.471,30.617z"/>
		<path fill="#3D4F55" d="M166.813,2.352h7.91v9.387h-7.91V2.352z M166.813,24.289h7.91v50.045h-7.91V24.289z"/>
		<path fill="#707071" d="M247.443,2.352v71.982h-7.805V67.9h-0.475c-1.898,2.918-4.369,4.825-7.41,5.722s-8.587,1.345-16.637,1.345
			c-6.681,0-11.734-0.246-15.162-0.738s-6.232-1.371-8.411-2.637c-3.2-1.828-5.484-4.456-6.855-7.884s-2.057-8.165-2.057-14.212
			c0-7.277,1.002-12.691,3.006-16.242c2.285-4.008,5.396-6.609,9.334-7.805c3.937-1.195,11.32-1.793,22.149-1.793
			c6.89,0,11.829,0.458,14.818,1.371c2.987,0.915,5.343,2.672,7.066,5.273h0.527V2.352H247.443z M216.383,30.617
			c-5.906,0-10.328,0.203-13.263,0.606c-2.936,0.405-5.177,1.117-6.724,2.136c-1.898,1.231-3.261,3.103-4.087,5.616
			c-0.827,2.514-1.239,6.021-1.239,10.521c0,7.735,1.415,12.754,4.245,15.056c2.83,2.304,8.992,3.454,18.484,3.454
			c6.117,0,10.713-0.201,13.789-0.606c3.076-0.403,5.37-1.116,6.883-2.136c1.898-1.301,3.26-3.138,4.085-5.511
			c0.826-2.373,1.24-5.669,1.24-9.888c0-4.992-0.449-8.762-1.346-11.312c-0.896-2.548-2.434-4.42-4.613-5.616
			C231.06,31.426,225.243,30.653,216.383,30.617z"/>
		<path fill="#707071" d="M311.252,58.883h8.279c-0.141,5.977-2.25,10.151-6.328,12.524s-11.18,3.56-21.305,3.56
			c-8.367,0-14.721-0.326-19.063-0.976c-4.344-0.649-7.621-1.749-9.836-3.296c-5.063-3.586-7.594-10.67-7.594-21.252
			c0-7.417,1.072-12.99,3.217-16.717c2.039-3.55,4.984-5.95,8.834-7.198c3.85-1.248,10.273-1.872,19.273-1.872
			c8.613,0,14.836,0.458,18.668,1.371c3.832,0.915,6.891,2.672,9.176,5.273c1.898,2.18,3.199,4.711,3.902,7.594
			c0.703,2.883,1.09,7.277,1.16,13.184h-55.74c0.211,6.223,1.441,10.494,3.691,12.814c1.512,1.582,3.93,2.663,7.252,3.243
			s8.727,0.87,16.215,0.87c5.66,0,9.809-0.264,12.445-0.791s4.605-1.494,5.906-2.9C310.391,63.225,311.006,61.414,311.252,58.883z
			 M310.883,44.328c-0.035-4.886-1.336-8.296-3.902-10.23c-1.688-1.3-4.053-2.206-7.092-2.716
			c-3.041-0.509-7.498-0.765-13.369-0.765c-5.133,0-9.043,0.237-11.732,0.712s-4.791,1.31-6.303,2.505
			c-2.496,1.934-3.938,5.432-4.324,10.494H310.883z"/>
		<path fill="#707071" d="M325.49,56.879h8.438c0,0.704,0,1.178,0,1.424c0,2.707,0.291,4.641,0.871,5.801s1.73,2.057,3.453,2.689
			c2.285,0.809,8.859,1.213,19.723,1.213c6.785,0,11.504-0.148,14.16-0.448c2.654-0.298,4.561-0.888,5.721-1.767
			c1.582-1.195,2.373-3.041,2.373-5.537c0-3.023-0.949-5.089-2.848-6.196s-5.361-1.643-10.389-1.608
			c-1.582,0.036-9.193-0.053-22.834-0.264c-3.551-0.07-6.389-0.351-8.516-0.844c-2.129-0.492-3.895-1.283-5.301-2.373
			c-2.672-2.074-4.008-5.572-4.008-10.494c0-5.203,1.67-8.982,5.01-11.338c1.758-1.23,4.641-2.118,8.648-2.663
			c4.008-0.544,9.773-0.817,17.297-0.817c8.402,0,14.6,0.458,18.59,1.371c3.988,0.915,6.916,2.531,8.779,4.852
			c0.914,1.125,1.504,2.312,1.768,3.56c0.264,1.249,0.395,3.349,0.395,6.302h-8.332c-0.035-3.059-0.545-5.063-1.529-6.012
			c-1.09-1.089-3.199-1.88-6.328-2.373c-3.129-0.492-7.664-0.738-13.605-0.738c-10.828,0-17.402,0.756-19.723,2.268
			c-1.688,1.125-2.531,3.024-2.531,5.695c0,2.742,0.984,4.553,2.953,5.432c1.969,0.879,5.941,1.266,11.918,1.16
			c5.906-0.105,13.553,0.036,22.939,0.422c5.695,0.211,9.801,1.459,12.314,3.744c2.512,2.286,3.77,5.906,3.77,10.863
			c0,2.988-0.439,5.414-1.318,7.277s-2.303,3.393-4.271,4.588c-1.723,1.055-4.535,1.803-8.438,2.241s-9.545,0.659-16.928,0.659
			c-8.262,0-14.389-0.246-18.377-0.738c-3.99-0.492-6.918-1.371-8.781-2.637c-1.898-1.266-3.225-2.795-3.98-4.588
			c-0.758-1.793-1.135-4.289-1.135-7.488C325.438,59.094,325.455,58.215,325.49,56.879z"/>
		<path fill="#707071" d="M396.207,2.352h7.91V43.59h4.641l30.217-19.301h12.551l-34.857,22.834l39.973,27.211h-13.236
			L408.23,50.551h-4.113v23.783h-7.91V2.352z"/>
	</g>
	<g>
		<path fill="#1B181C" d="M183.016,98.957h2.483v2.057c0.778-0.943,1.562-1.555,2.352-1.834s2.138-0.42,4.045-0.42
			c2.555,0,4.388,0.188,5.501,0.56c1.113,0.373,1.976,1.091,2.59,2.154c0.504-1.02,1.283-1.727,2.335-2.121
			c1.052-0.396,2.697-0.593,4.934-0.593c2.127,0,3.719,0.138,4.777,0.412c1.058,0.273,1.916,0.768,2.574,1.479
			c0.504,0.57,0.833,1.209,0.987,1.916c0.153,0.707,0.23,1.971,0.23,3.79v8.207h-2.467v-8.781c0-1.919-0.285-3.158-0.855-3.717
			c-0.768-0.758-2.522-1.135-5.263-1.135c-1.568,0-2.763,0.104-3.585,0.313c-0.822,0.208-1.447,0.559-1.875,1.052
			c-0.427,0.505-0.718,1.176-0.872,2.015s-0.23,2.207-0.23,4.104v6.15h-2.467v-8.781c0-1.107-0.061-1.925-0.181-2.451
			s-0.345-0.943-0.674-1.25c-0.8-0.768-2.565-1.15-5.295-1.15c-1.579,0-2.793,0.106-3.643,0.32c-0.85,0.213-1.505,0.578-1.965,1.094
			c-0.395,0.449-0.655,1.063-0.781,1.842s-0.189,2.188-0.189,4.227v6.15h-2.467V98.957z"/>
		<path fill="#1B181C" d="M235.477,109.746h2.582c-0.044,1.863-0.702,3.166-1.974,3.906c-1.272,0.739-3.486,1.109-6.644,1.109
			c-2.609,0-4.591-0.102-5.945-0.305c-1.354-0.202-2.376-0.545-3.067-1.027c-1.579-1.118-2.368-3.327-2.368-6.627
			c0-2.314,0.334-4.052,1.003-5.214c0.636-1.107,1.554-1.855,2.755-2.245c1.2-0.389,3.204-0.584,6.011-0.584
			c2.686,0,4.626,0.143,5.822,0.428c1.195,0.285,2.148,0.834,2.861,1.645c0.592,0.68,0.998,1.47,1.217,2.369
			c0.219,0.898,0.34,2.27,0.362,4.111h-17.383c0.066,1.939,0.45,3.271,1.151,3.996c0.471,0.493,1.225,0.83,2.261,1.012
			c1.036,0.18,2.722,0.271,5.057,0.271c1.765,0,3.059-0.082,3.881-0.247c0.822-0.164,1.436-0.465,1.842-0.904
			C235.208,111.1,235.4,110.535,235.477,109.746z M235.361,105.207c-0.011-1.523-0.417-2.588-1.217-3.19
			c-0.526-0.405-1.264-0.688-2.212-0.847c-0.948-0.159-2.338-0.238-4.169-0.238c-1.601,0-2.82,0.073-3.659,0.222
			c-0.839,0.147-1.494,0.408-1.965,0.78c-0.778,0.604-1.228,1.694-1.349,3.273H235.361z"/>
		<path fill="#1B181C" d="M260.211,92.116v22.448h-2.434v-2.006h-0.148c-0.592,0.91-1.362,1.504-2.311,1.783
			c-0.948,0.28-2.678,0.42-5.188,0.42c-2.083,0-3.659-0.076-4.729-0.23c-1.068-0.153-1.943-0.428-2.623-0.822
			c-0.997-0.57-1.71-1.389-2.138-2.459c-0.428-1.068-0.642-2.545-0.642-4.432c0-2.27,0.313-3.957,0.938-5.064
			c0.713-1.25,1.683-2.062,2.911-2.435c1.228-0.372,3.53-0.56,6.907-0.56c2.148,0,3.689,0.143,4.621,0.428s1.666,0.834,2.204,1.645
			h0.164v-8.716H260.211z M250.524,100.932c-1.842,0-3.221,0.063-4.136,0.188c-0.916,0.126-1.615,0.349-2.097,0.666
			c-0.593,0.384-1.018,0.968-1.275,1.751c-0.257,0.785-0.386,1.879-0.386,3.281c0,2.412,0.44,3.978,1.323,4.695
			c0.883,0.719,2.805,1.077,5.765,1.077c1.907,0,3.341-0.063,4.301-0.188c0.959-0.127,1.674-0.349,2.146-0.666
			c0.592-0.406,1.017-0.979,1.274-1.719s0.387-1.768,0.387-3.084c0-1.557-0.14-2.732-0.419-3.527
			c-0.28-0.795-0.76-1.379-1.439-1.752C255.102,101.184,253.287,100.941,250.524,100.932z"/>
		<path fill="#1B181C" d="M263.155,92.116h2.467v2.927h-2.467V92.116z M263.155,98.957h2.467v15.607h-2.467V98.957z"/>
		<path fill="#1B181C" d="M271.131,103.645h-2.565c-0.022-0.285-0.033-0.51-0.033-0.674c0-1.634,0.614-2.746,1.842-3.339
			c1.228-0.592,3.53-0.888,6.907-0.888c2.653,0,4.561,0.121,5.723,0.361c1.162,0.241,2.072,0.702,2.73,1.381
			c0.548,0.549,0.904,1.195,1.068,1.941c0.165,0.746,0.247,2.051,0.247,3.914v8.223h-2.45l0.049-1.826h-0.131
			c-0.614,0.855-1.352,1.406-2.212,1.653c-0.861,0.247-2.486,0.37-4.876,0.37c-2.73,0-4.627-0.066-5.69-0.197
			s-1.869-0.405-2.418-0.822c-0.548-0.395-0.929-0.866-1.143-1.414c-0.214-0.549-0.321-1.316-0.321-2.303
			c0-1.206,0.162-2.133,0.485-2.779s0.869-1.129,1.637-1.447c0.833-0.361,2.779-0.543,5.838-0.543c3.201,0,5.296,0.097,6.282,0.288
			c0.987,0.192,1.749,0.655,2.286,1.39h0.214v-1.678c0-1.37-0.247-2.357-0.74-2.96c-0.438-0.537-1.104-0.901-1.998-1.093
			c-0.894-0.192-2.354-0.289-4.383-0.289c-2.664,0-4.389,0.156-5.172,0.469c-0.784,0.313-1.176,0.996-1.176,2.048
			C271.131,103.486,271.131,103.557,271.131,103.645z M277.445,107.443c-2.028,0-3.448,0.035-4.259,0.107
			c-0.812,0.071-1.388,0.205-1.727,0.402c-0.647,0.385-0.971,1.092-0.971,2.121c0,1.02,0.384,1.711,1.151,2.072
			c0.625,0.297,2.729,0.444,6.314,0.444c2.621,0,4.353-0.17,5.197-0.51c0.844-0.339,1.267-1.03,1.267-2.072
			c0-1.009-0.472-1.688-1.415-2.039C282.062,107.619,280.209,107.443,277.445,107.443z"/>
		<path fill="#1B181C" d="M297.625,109.121h2.631c0,0.219,0,0.367,0,0.443c0,0.845,0.091,1.447,0.271,1.81
			c0.182,0.362,0.54,0.642,1.077,0.839c0.713,0.252,2.764,0.378,6.151,0.378c2.115,0,3.587-0.046,4.415-0.14
			c0.828-0.093,1.423-0.277,1.784-0.551c0.494-0.373,0.74-0.948,0.74-1.727c0-0.943-0.296-1.588-0.888-1.933
			s-1.672-0.513-3.24-0.501c-0.493,0.01-2.867-0.018-7.12-0.083c-1.108-0.022-1.993-0.109-2.656-0.263
			c-0.664-0.154-1.215-0.4-1.653-0.74c-0.833-0.646-1.25-1.738-1.25-3.273c0-1.622,0.521-2.801,1.563-3.535
			c0.549-0.384,1.447-0.66,2.697-0.83s3.048-0.256,5.395-0.256c2.62,0,4.553,0.143,5.797,0.428s2.157,0.789,2.738,1.514
			c0.285,0.351,0.469,0.721,0.551,1.109c0.082,0.39,0.123,1.045,0.123,1.966h-2.598c-0.012-0.954-0.171-1.579-0.478-1.875
			c-0.34-0.34-0.998-0.587-1.974-0.74s-2.39-0.229-4.242-0.229c-3.378,0-5.428,0.235-6.151,0.707
			c-0.526,0.351-0.789,0.942-0.789,1.775c0,0.855,0.307,1.42,0.921,1.694s1.853,0.395,3.717,0.362
			c1.842-0.033,4.227,0.01,7.153,0.131c1.776,0.066,3.057,0.455,3.841,1.168c0.783,0.713,1.176,1.842,1.176,3.388
			c0,0.932-0.138,1.688-0.411,2.27c-0.274,0.581-0.719,1.058-1.332,1.431c-0.538,0.328-1.415,0.563-2.632,0.699
			s-2.977,0.205-5.279,0.205c-2.576,0-4.486-0.076-5.73-0.23c-1.245-0.153-2.157-0.428-2.738-0.822
			c-0.593-0.395-1.006-0.871-1.242-1.431c-0.235-0.56-0.354-1.337-0.354-2.335C297.608,109.812,297.614,109.537,297.625,109.121z"/>
		<path fill="#1B181C" d="M328.822,98.76c2.456,0,4.268,0.074,5.436,0.223c1.167,0.148,2.08,0.42,2.738,0.814
			c0.986,0.592,1.699,1.434,2.138,2.523c0.438,1.092,0.657,2.574,0.657,4.449c0,2.083-0.263,3.667-0.789,4.752
			c-0.384,0.822-0.896,1.465-1.537,1.925c-0.642,0.46-1.483,0.795-2.524,1.003c-1.009,0.209-2.687,0.313-5.033,0.313
			c-2.214,0-3.887-0.074-5.016-0.223c-1.129-0.147-2.045-0.413-2.746-0.797c-1.042-0.559-1.787-1.384-2.236-2.475
			c-0.45-1.092-0.675-2.617-0.675-4.58c0-2.193,0.323-3.854,0.971-4.983c0.657-1.162,1.567-1.94,2.729-2.335
			S326.06,98.771,328.822,98.76z M329.217,100.932c-1.634,0-2.867,0.061-3.7,0.18c-0.833,0.121-1.496,0.341-1.99,0.658
			c-0.581,0.373-1.003,0.963-1.266,1.768c-0.264,0.807-0.395,1.906-0.395,3.298c0,1.579,0.175,2.761,0.525,3.544
			c0.352,0.784,0.954,1.34,1.81,1.67c0.942,0.361,2.779,0.542,5.509,0.542c1.776,0,3.084-0.065,3.923-0.197s1.505-0.378,1.998-0.739
			c0.548-0.385,0.939-0.96,1.176-1.728c0.235-0.767,0.354-1.847,0.354-3.239c0-1.645-0.187-2.852-0.56-3.619
			c-0.416-0.854-1.109-1.424-2.08-1.709C333.551,101.074,331.782,100.932,329.217,100.932z"/>
		<path fill="#1B181C" d="M342.258,92.116h2.467v22.448h-2.467V92.116z"/>
		<path fill="#1B181C" d="M347.422,98.957h2.467v7.911c0,1.458,0.076,2.503,0.23,3.133c0.153,0.63,0.455,1.143,0.904,1.538
			c0.449,0.383,1.071,0.654,1.866,0.813s1.916,0.238,3.363,0.238c1.875,0,3.33-0.142,4.366-0.427s1.817-0.758,2.344-1.415
			c0.329-0.395,0.557-0.891,0.683-1.488s0.189-1.461,0.189-2.591v-7.713h2.467v15.607h-2.467v-2.336h-0.148
			c-0.625,0.998-1.458,1.67-2.5,2.016c-1.041,0.346-2.779,0.518-5.213,0.518c-1.908,0-3.404-0.115-4.489-0.346
			c-1.086-0.23-1.936-0.613-2.55-1.15c-0.559-0.482-0.951-1.146-1.176-1.99s-0.337-2.072-0.337-3.684V98.957z"/>
		<path fill="#1B181C" d="M371.366,95.093h2.467v3.864h10.92v2.105h-10.92v6.775c0.021,1.48,0.061,2.385,0.115,2.714
			s0.214,0.657,0.477,0.987c0.307,0.383,0.768,0.654,1.382,0.813c0.613,0.159,1.513,0.238,2.697,0.238
			c1.106,0,1.913-0.076,2.417-0.229c0.504-0.154,0.899-0.434,1.185-0.84c0.186-0.285,0.31-0.625,0.369-1.02
			c0.061-0.395,0.091-1.063,0.091-2.006v-0.986h2.45v0.986c0,1.195-0.058,2.103-0.173,2.722c-0.114,0.62-0.331,1.165-0.649,1.636
			c-0.46,0.681-1.146,1.168-2.056,1.465c-0.91,0.295-2.187,0.443-3.832,0.443c-1.688,0-3.007-0.137-3.955-0.411
			s-1.652-0.724-2.113-1.349c-0.34-0.461-0.569-0.992-0.69-1.596c-0.121-0.602-0.181-1.518-0.181-2.746v-7.598h-3.832v-2.105h3.832
			V95.093z"/>
		<path fill="#1B181C" d="M386.924,92.116h2.467v2.927h-2.467V92.116z M386.924,98.957h2.467v15.607h-2.467V98.957z"/>
		<path fill="#1B181C" d="M401.462,98.76c2.456,0,4.268,0.074,5.436,0.223c1.167,0.148,2.08,0.42,2.738,0.814
			c0.986,0.592,1.699,1.434,2.138,2.523c0.438,1.092,0.657,2.574,0.657,4.449c0,2.083-0.263,3.667-0.789,4.752
			c-0.384,0.822-0.896,1.465-1.537,1.925c-0.642,0.46-1.483,0.795-2.524,1.003c-1.009,0.209-2.687,0.313-5.033,0.313
			c-2.214,0-3.887-0.074-5.016-0.223c-1.129-0.147-2.045-0.413-2.746-0.797c-1.042-0.559-1.787-1.384-2.236-2.475
			c-0.45-1.092-0.675-2.617-0.675-4.58c0-2.193,0.323-3.854,0.971-4.983c0.657-1.162,1.567-1.94,2.729-2.335
			S398.699,98.771,401.462,98.76z M401.856,100.932c-1.634,0-2.867,0.061-3.7,0.18c-0.833,0.121-1.496,0.341-1.99,0.658
			c-0.581,0.373-1.003,0.963-1.266,1.768c-0.264,0.807-0.395,1.906-0.395,3.298c0,1.579,0.175,2.761,0.525,3.544
			c0.352,0.784,0.954,1.34,1.81,1.67c0.942,0.361,2.779,0.542,5.509,0.542c1.776,0,3.084-0.065,3.923-0.197s1.505-0.378,1.998-0.739
			c0.548-0.385,0.939-0.96,1.176-1.728c0.235-0.767,0.354-1.847,0.354-3.239c0-1.645-0.187-2.852-0.56-3.619
			c-0.416-0.854-1.109-1.424-2.08-1.709C406.19,101.074,404.422,100.932,401.856,100.932z"/>
		<path fill="#1B181C" d="M414.783,98.957h2.467v2.352h0.181c0.526-0.996,1.329-1.671,2.409-2.021
			c1.08-0.352,2.903-0.527,5.469-0.527c2.236,0,3.895,0.124,4.975,0.371c1.08,0.246,1.927,0.693,2.541,1.34
			c0.482,0.516,0.819,1.159,1.011,1.932c0.192,0.773,0.288,1.889,0.288,3.348v8.814h-2.467v-7.762c0-1.393-0.058-2.394-0.173-3.002
			s-0.348-1.121-0.699-1.537c-0.416-0.482-1.055-0.825-1.915-1.028c-0.861-0.202-2.146-0.304-3.856-0.304
			c-1.908,0-3.394,0.139-4.457,0.419c-1.063,0.279-1.864,0.737-2.401,1.373c-0.373,0.46-0.616,0.979-0.731,1.554
			c-0.115,0.576-0.173,1.599-0.173,3.067v7.22h-2.467V98.957z"/>
		<path fill="#1B181C" d="M436.277,109.121h2.631c0,0.219,0,0.367,0,0.443c0,0.845,0.091,1.447,0.271,1.81
			c0.182,0.362,0.54,0.642,1.077,0.839c0.713,0.252,2.764,0.378,6.151,0.378c2.115,0,3.587-0.046,4.415-0.14
			c0.828-0.093,1.423-0.277,1.784-0.551c0.494-0.373,0.74-0.948,0.74-1.727c0-0.943-0.296-1.588-0.888-1.933
			s-1.672-0.513-3.24-0.501c-0.493,0.01-2.867-0.018-7.12-0.083c-1.108-0.022-1.993-0.109-2.656-0.263
			c-0.664-0.154-1.215-0.4-1.653-0.74c-0.833-0.646-1.25-1.738-1.25-3.273c0-1.622,0.521-2.801,1.563-3.535
			c0.549-0.384,1.447-0.66,2.697-0.83s3.048-0.256,5.395-0.256c2.62,0,4.553,0.143,5.797,0.428s2.157,0.789,2.738,1.514
			c0.285,0.351,0.469,0.721,0.551,1.109c0.082,0.39,0.123,1.045,0.123,1.966h-2.598c-0.012-0.954-0.171-1.579-0.478-1.875
			c-0.34-0.34-0.998-0.587-1.974-0.74s-2.39-0.229-4.242-0.229c-3.378,0-5.428,0.235-6.151,0.707
			c-0.526,0.351-0.789,0.942-0.789,1.775c0,0.855,0.307,1.42,0.921,1.694s1.853,0.395,3.717,0.362
			c1.842-0.033,4.227,0.01,7.153,0.131c1.776,0.066,3.057,0.455,3.841,1.168c0.783,0.713,1.176,1.842,1.176,3.388
			c0,0.932-0.138,1.688-0.411,2.27c-0.274,0.581-0.719,1.058-1.332,1.431c-0.538,0.328-1.415,0.563-2.632,0.699
			s-2.977,0.205-5.279,0.205c-2.576,0-4.486-0.076-5.73-0.23c-1.245-0.153-2.157-0.428-2.738-0.822
			c-0.593-0.395-1.006-0.871-1.242-1.431c-0.235-0.56-0.354-1.337-0.354-2.335C436.261,109.812,436.267,109.537,436.277,109.121z"/>
	</g>
	<g>
		<path fill="#707071" d="M471.398,9.983c0,1.981-0.701,3.673-2.104,5.076c-1.403,1.403-3.095,2.104-5.076,2.104
			s-3.673-0.701-5.076-2.104c-1.402-1.402-2.104-3.095-2.104-5.076s0.701-3.673,2.104-5.076c1.403-1.403,3.095-2.104,5.076-2.104
			s3.673,0.701,5.076,2.104C470.697,6.31,471.398,8.002,471.398,9.983z M470.436,9.983c0-1.715-0.606-3.188-1.821-4.416
			s-2.68-1.843-4.396-1.843s-3.181,0.614-4.396,1.843s-1.821,2.701-1.821,4.416s0.606,3.188,1.821,4.416s2.68,1.843,4.396,1.843
			s3.181-0.614,4.396-1.843S470.436,11.698,470.436,9.983z M468.842,13.635h-1.851l-2.747-2.947h-1.346v2.947h-1.369V6.04h2.59
			c0.521,0,0.949,0.022,1.287,0.066c0.337,0.044,0.669,0.152,0.996,0.324c0.348,0.188,0.604,0.417,0.768,0.685
			c0.163,0.268,0.244,0.604,0.244,1.008c0,0.537-0.156,0.984-0.469,1.34c-0.313,0.357-0.742,0.641-1.291,0.851L468.842,13.635z
			 M465.92,8.215c0-0.199-0.038-0.376-0.115-0.531c-0.078-0.155-0.208-0.282-0.391-0.382c-0.172-0.094-0.354-0.155-0.548-0.183
			s-0.438-0.042-0.73-0.042h-1.237v2.565h1.055c0.343,0,0.639-0.026,0.889-0.079c0.248-0.052,0.453-0.142,0.613-0.27
			c0.172-0.138,0.292-0.291,0.361-0.457S465.92,8.464,465.92,8.215z"/>
	</g>
</g>
</svg>
