<?xml version="1.0" encoding="utf-8"?>
<!-- Generator: Adobe Illustrator 16.0.0, SVG Export Plug-In . SVG Version: 6.00 Build 0)  -->
<!DOCTYPE svg PUBLIC "-//W3C//DTD SVG 1.0//EN" "http://www.w3.org/TR/2001/REC-SVG-20010904/DTD/svg10.dtd">
<svg version="1.0" id="shoppingBagWrapper" xmlns="http://www.w3.org/2000/svg" xmlns:xlink="http://www.w3.org/1999/xlink" x="0px" y="0px"
	 width="64px" height="64px" viewBox="0 0 64 64" enable-background="new 0 0 64 64" xml:space="preserve" class="shopping-bag-wrapper">
	 <symbol id="shoppingBag">
        <polygon class="shopping-bag-stroke" fill="none" stroke="currentColor" stroke-width="2" stroke-miterlimit="10" points="44,18 54,18 54,63 10,63 10,18 20,18 "/>
        <path class="shopping-bag-stroke" fill="none" stroke="currentColor" stroke-width="2" stroke-miterlimit="10" d="M22,24V11c0-5.523,4.477-10,10-10s10,4.477,10,10v13
        "/>
         <text class="shopping-bag-text" x="32" y="46" stroke="none" fill="currentColor" style="text-anchor: middle;">[{if $count > 99}]99+[{else}][{$count}][{/if}]</text>
     </symbol>
     <symbol id="shoppingBagMini">
         <polygon class="shopping-bag-stroke" fill="none" stroke="currentColor" stroke-width="2" stroke-miterlimit="10" points="44,18 54,18 54,63 10,63 10,18 20,18 "/>
         <path class="shopping-bag-stroke" fill="none" stroke="currentColor" stroke-width="2" stroke-miterlimit="10" d="M22,24V11c0-5.523,4.477-10,10-10s10,4.477,10,10v13
         "/>
          <text class="shopping-bag-text" x="32" y="47" stroke="currentColor" fill="currentColor" stroke-width="2" style="text-anchor: middle;">[{if $count > 99}]99+[{else}][{$count}][{/if}]</text>
      </symbol>
</svg>
