<?xml version="1.0" encoding="utf-8"?>
<svg version="1.1" id="Ebene_1" xmlns="http://www.w3.org/2000/svg" xmlns:xlink="http://www.w3.org/1999/xlink" x="0px" y="0px"
	 viewBox="0 0 64 64" style="enable-background:new 0 0 64 64;" xml:space="preserve">
    <style type="text/css">
        .st0{fill: #009ebc;}
    </style>
    <symbol id="shoppingBag">
        <path class="st0" d="M55.8,11.8c-0.1-1.4-1-1.7-1-1.7s-4.6,0-10.9-0.1c0.1-2.4,0.3-7.6-1.1-8.7c-1.8-1.4-15.6-1.8-17.7-0.4
            c-1.8,1.3-1.8,6.9-1.8,9c-6.2,0-10.7,0-11.2,0L10.2,10c0,0-0.6,0.1-0.6,0.8C9.6,11.5,6.1,64,6.1,64l51.8-3.5
            C57.9,60.5,55.8,12.9,55.8,11.8z M27.9,10L28,4.1l11.6,0.1v5.9C35.9,10,31.6,10,27.9,10z"/>
        <text class="shopping-bag-text" x="32" y="43" stroke="none" fill="#FFFFFF" style="font-size: 225%; text-anchor: middle;">[{if $count > 99}]99+[{else}][{$count}][{/if}]</text>
    </symbol>
    <symbol id="shoppingBagMini">
        <polygon class="shopping-bag-stroke" fill="none" stroke="currentColor" stroke-width="2" stroke-miterlimit="10" points="44,18 54,18 54,63 10,63 10,18 20,18 "/>
        <path class="shopping-bag-stroke" fill="none" stroke="currentColor" stroke-width="2" stroke-miterlimit="10" d="M22,24V11c0-5.523,4.477-10,10-10s10,4.477,10,10v13"/>
        <text class="shopping-bag-text" x="32" y="43" stroke="currentColor" fill="#FFFFFF" stroke-width="2" style="font-size: 225%; text-anchor: middle;">[{if $count > 99}]99+[{else}][{$count}][{/if}]</text>
    </symbol>
</svg>